<?xml version="1.0" encoding="utf-8"?>
<!-- Generator: Adobe Illustrator 16.0.0, SVG Export Plug-In . SVG Version: 6.00 Build 0)  -->
<!DOCTYPE svg PUBLIC "-//W3C//DTD SVG 1.1//EN" "http://www.w3.org/Graphics/SVG/1.1/DTD/svg11.dtd">
<svg version="1.1" id="Layer_1" xmlns="http://www.w3.org/2000/svg" xmlns:xlink="http://www.w3.org/1999/xlink" x="0px" y="0px"
	 width="1000px" height="1000px" viewBox="0 0 1000 1000" enable-background="new 0 0 1000 1000" xml:space="preserve">
<path fill="#010101" d="M247.598,288.155c-19.49,3.102-32.769,21.453-29.664,40.978c3.14,19.488,21.455,32.767,40.978,29.662
	h105.963l6.346,17.662l28.973,88.301l28.976,88.301c2.827,9.176,14.832,17.662,24.007,17.662H700.42
	c9.934,0,21.18-8.486,24.007-17.662l57.26-176.602c2.758-9.175-1.449-17.662-11.313-17.662H456.694l-26.838-50.842
	c-5.828-11.933-17.832-19.557-31.076-19.797H257.497c-2.104-0.208-4.242-0.208-6.347,0c-1.415-0.069-2.829-0.069-4.244,0H247.598z
	 M470.835,641.362c-19.764,0-35.321,15.521-35.321,35.32s15.558,35.32,35.321,35.32c19.766,0,35.32-15.521,35.32-35.32
	S490.601,641.362,470.835,641.362z M682.761,641.362c-19.73,0-35.321,15.521-35.321,35.32s15.591,35.32,35.321,35.32
	c19.729,0,35.32-15.521,35.32-35.32S702.489,641.362,682.761,641.362z"/>
<circle opacity="0.5" fill="none" stroke="#393D3F" stroke-width="2" stroke-miterlimit="10" cx="500" cy="500" r="450"/>
</svg>
