<?xml version="1.0" encoding="utf-8"?>
<!-- Generator: Adobe Illustrator 16.0.0, SVG Export Plug-In . SVG Version: 6.00 Build 0)  -->
<!DOCTYPE svg PUBLIC "-//W3C//DTD SVG 1.1//EN" "http://www.w3.org/Graphics/SVG/1.1/DTD/svg11.dtd">
<svg version="1.1" id="Layer_1" xmlns="http://www.w3.org/2000/svg" xmlns:xlink="http://www.w3.org/1999/xlink" x="0px" y="0px"
	 width="1000px" height="1000px" viewBox="0 0 1000 1000" enable-background="new 0 0 1000 1000" xml:space="preserve">
<circle opacity="0.5" fill="none" stroke="#393D3F" stroke-width="2" stroke-miterlimit="10" enable-background="new    " cx="500" cy="500" r="450"/>
<path d="M500,286.634c-14.898,0-26.67,11.721-26.67,26.671v26.671h-40.006c-7.477,0-13.336,5.834-13.336,13.335v40.006h160.024
	v-40.006c0-7.501-5.834-13.335-13.335-13.335h-40.007v-26.671C526.671,298.354,514.899,286.634,500,286.634z M326.64,339.976
	c-7.475,0-13.335,5.834-13.335,13.335v346.721c0,7.501,5.86,13.335,13.335,13.335h346.722c7.5,0,13.335-5.834,13.335-13.335V353.311
	c0-7.501-5.835-13.335-13.335-13.335h-40.007v106.683H366.647V339.976H326.64z"/>
</svg>
